:SAMPLES-PER-SECOND 30
:FULLY-SPECIFIED
:DEGREES
444
root  -38.1205 41.1272 1.93523 169.032 -85.1849 -175.643
RightUpLeg  2.69527 -9.02558 -5.6714
RightLeg  9.80726 -4.81397 1.10476
RightFoot  -4.88028 -0.0464708 0.149457
RightToes  5.82063e-011 0 -3.6325e-017
Spine  1.93981 1.01611 1.53197
Spine1  -0.59941 0.940646 0.385456
HEad  18.5137 3.50991 -2.51622
LeftShoulder1  2.28002 -7.49693 -13.7593
LeftArm  -14.8775 22.4352 -1.00953
LeftForeArm  18.9062 -13.1163 -2.1769
LeftHand  -0.244104 0.0205437 5.32207
RightShoulder  0.636638 0.619414 7.94611
RightArm  -17.4406 -10.2594 1.92717
RightForeArm  -6.76864 9.64493 4.62988
RightHand  -2.25687 5.99638 -23.0135
LeftUpLeg  8.23595 4.48887 -1.52398
LeftLeg  3.60239 15.9406 -4.01262
LeftFoot  -6.20626 -0.245405 6.30826
LeftToes  1.45487e-011 -6.19069e-011 1.65092e-011
445
root  -38.0667 41.1324 1.99039 168.373 -85.249 -174.834
RightUpLeg  2.49647 -8.94556 -5.63598
RightLeg  9.70874 -4.97772 1.11064
RightFoot  -4.78538 -0.0493317 0.188198
RightToes  5.82063e-011 0 -3.6325e-017
Spine  1.55185 0.967018 1.10992
Spine1  -0.789969 0.840722 0.668937
HEad  20.1353 3.18182 -2.2915
LeftShoulder1  2.06473 -7.08058 -12.4159
LeftArm  -15.5966 21.8998 -1.12975
LeftForeArm  18.3373 -13.1534 -2.07796
LeftHand  -0.244104 0.0205437 5.32207
RightShoulder  0.551879 0.285638 6.96237
RightArm  -17.3928 -9.56792 1.76189
RightForeArm  -5.92869 9.4632 4.62124
RightHand  -2.17538 5.76014 -22.6631
LeftUpLeg  8.03756 4.46806 -1.53943
LeftLeg  3.4755 15.8698 -4.08398
LeftFoot  -6.10208 -0.258608 6.44655
LeftToes  1.45487e-011 -6.19069e-011 1.65092e-011
446
root  -37.9919 41.1359 2.03189 167.107 -85.3857 -173.458
RightUpLeg  2.33021 -8.88539 -5.55176
RightLeg  9.61186 -5.19206 1.12743
RightFoot  -4.70653 -0.0490277 0.17903
RightToes  5.82063e-011 0 -3.6325e-017
Spine  1.29143 0.869024 0.756757
Spine1  -0.912628 0.713594 0.834172
HEad  21.9835 2.89093 -2.04889
LeftShoulder1  1.87905 -6.68793 -11.2321
LeftArm  -16.3636 21.2841 -1.51244
LeftForeArm  17.6587 -12.9243 -1.94421
LeftHand  -0.244104 0.0205437 5.32207
RightShoulder  0.500003 0.0535798 6.38734
RightArm  -17.2353 -8.96134 1.68011
RightForeArm  -5.35178 9.12299 4.63171
RightHand  -2.04235 5.28967 -22.2252
LeftUpLeg  7.78482 4.54763 -1.43936
LeftLeg  3.49563 15.6334 -4.18424
LeftFoot  -5.99953 -0.272218 6.61007
LeftToes  1.45487e-011 -6.19069e-011 1.65092e-011
447
root  -37.8955 41.1349 2.06831 165.863 -85.4515 -172.18
RightUpLeg  2.17522 -8.83083 -5.45249
RightLeg  9.57219 -5.28968 1.1182
RightFoot  -4.65699 -0.0483874 0.166761
RightToes  5.82063e-011 0 -3.6325e-017
Spine  1.16938 0.809606 0.506916
Spine1  -0.892236 0.64154 0.902817
HEad  23.7967 2.61289 -1.8734
LeftShoulder1  1.74937 -6.36734 -10.4391
LeftArm  -17.133 20.5657 -1.94836
LeftForeArm  16.8385 -12.5 -1.77951
LeftHand  -0.244104 0.0205437 5.32207
RightShoulder  0.45658 -0.181541 6.03281
RightArm  -17.1684 -8.34823 1.77501
RightForeArm  -4.853 8.54797 4.59399
RightHand  -1.90508 4.79173 -21.7558
LeftUpLeg  7.53069 4.60657 -1.35866
LeftLeg  3.62487 15.4886 -4.20906
LeftFoot  -5.92008 -0.282555 6.72101
LeftToes  1.45487e-011 -6.19069e-011 1.65092e-011
448
root  -37.7836 41.1291 2.0989 164.943 -85.4268 -171.269
RightUpLeg  1.99117 -8.78639 -5.34849
RightLeg  9.60572 -5.27029 1.08333
RightFoot  -4.63493 -0.0493063 0.181724
RightToes  5.82063e-011 0 -3.6325e-017
Spine  1.15436 0.817763 0.284211
Spine1  -0.770587 0.627776 1.02859
HEad  25.3227 2.33741 -1.80823
LeftShoulder1  1.69473 -6.1913 -10.1685
LeftArm  -17.8895 19.87 -2.27644
LeftForeArm  15.8569 -12.0222 -1.58851
LeftHand  -0.244104 0.0205437 5.32207
RightShoulder  0.418129 -0.393283 5.69431
RightArm  -17.3316 -7.89595 2.1055
RightForeArm  -4.0593 7.93099 4.45229
RightHand  -1.80003 4.44426 -21.2938
LeftUpLeg  7.25959 4.59485 -1.3333
LeftLeg  3.84148 15.485 -4.12772
LeftFoot  -5.93795 -0.281837 6.72152
LeftToes  1.45487e-011 -6.19069e-011 1.65092e-011
449
root  -37.6619 41.1191 2.11889 163.884 -85.4156 -170.226
RightUpLeg  1.77159 -8.8112 -5.23541
RightLeg  9.71634 -5.23473 1.06193
RightFoot  -4.65692 -0.0462815 0.139382
RightToes  5.82063e-011 0 -3.6325e-017
Spine  1.23608 0.842143 0.0548847
Spine1  -0.632073 0.619392 1.22311
HEad  26.5577 2.01644 -1.76103
LeftShoulder1  1.68735 -6.1612 -10.1433
LeftArm  -18.561 19.3271 -2.59835
LeftForeArm  14.812 -11.5603 -1.39989
LeftHand  -0.244104 0.0205437 5.32207
RightShoulder  0.401547 -0.464279 5.43366
RightArm  -17.5218 -7.80777 2.48545
RightForeArm  -3.13212 7.48529 4.28612
RightHand  -1.72979 4.24804 -20.89
LeftUpLeg  6.93288 4.57579 -1.28202
LeftLeg  4.18819 15.441 -3.99527
LeftFoot  -6.11944 -0.261656 6.5393
LeftToes  1.45487e-011 -6.19069e-011 1.65092e-011
450
root  -37.5344 41.1037 2.13081 162.449 -85.4604 -168.842
RightUpLeg  1.56933 -8.92092 -5.13551
RightLeg  9.88425 -5.2213 1.07983
RightFoot  -4.71947 -0.0364098 -0.00444235
RightToes  5.82063e-011 0 -3.6325e-017
Spine  1.42328 0.834103 -0.130937
Spine1  -0.437714 0.590608 1.35635
HEad  27.4923 1.62219 -1.64087
LeftShoulder1  1.68115 -6.17396 -10.0466
LeftArm  -19.0124 18.928 -3.0322
LeftForeArm  13.9386 -11.1205 -1.2658
LeftHand  -0.244104 0.0205437 5.32207
RightShoulder  0.408786 -0.406499 5.41811
RightArm  -17.4332 -7.94986 2.72941
RightForeArm  -2.43801 7.19158 4.21088
RightHand  -1.67754 4.1245 -20.5315
LeftUpLeg  6.58323 4.59105 -1.1829
LeftLeg  4.68387 15.2853 -3.83291
LeftFoot  -6.46149 -0.222298 6.12333
LeftToes  1.45487e-011 -6.19069e-011 1.65092e-011
451
root  -37.4071 41.0835 2.14151 160.959 -85.4698 -167.474
RightUpLeg  1.43848 -9.02722 -5.05653
RightLeg  10.0558 -5.19097 1.12685
RightFoot  -4.77313 -0.0262921 -0.146378
RightToes  5.82063e-011 0 -3.6325e-017
Spine  1.71341 0.804591 -0.232546
Spine1  -0.107584 0.556214 1.40615
HEad  27.9782 1.27545 -1.521
LeftShoulder1  1.66433 -6.11944 -9.9616
LeftArm  -19.1877 18.596 -3.44582
LeftForeArm  13.4709 -10.7338 -1.20762
LeftHand  -0.244104 0.0205437 5.32207
RightShoulder  0.420493 -0.357918 5.60878
RightArm  -17.1828 -7.96877 2.90299
RightForeArm  -1.69328 6.8769 4.18674
RightHand  -1.63965 4.09328 -20.1467
LeftUpLeg  6.26978 4.65387 -1.09467
LeftLeg  5.29962 15.1195 -3.576
LeftFoot  -6.91299 -0.174029 5.57324
LeftToes  1.45487e-011 -6.19069e-011 1.65092e-011
452
root  -37.2889 41.0634 2.15397 159.702 -85.3303 -166.38
RightUpLeg  1.35198 -9.05163 -4.95324
RightLeg  10.2006 -5.08245 1.17691
RightFoot  -4.82132 -0.0258131 -0.132024
RightToes  5.82063e-011 0 -3.6325e-017
Spine  2.07102 0.80145 -0.227815
Spine1  0.289589 0.551076 1.44019
HEad  28.0547 1.1404 -1.51528
LeftShoulder1  1.65453 -5.99413 -10.0994
LeftArm  -19.1784 18.3335 -3.67083
LeftForeArm  13.447 -10.4198 -1.18732
LeftHand  -0.244104 0.0205437 5.32207
RightShoulder  0.426861 -0.358721 5.84028
RightArm  -17.1324 -7.77151 3.13015
RightForeArm  -0.496656 6.4875 4.08739
RightHand  -1.64132 4.26989 -19.8133
LeftUpLeg  5.9812 4.78641 -1.03909
LeftLeg  5.99378 15.0412 -3.18641
LeftFoot  -7.42181 -0.130898 5.13115
LeftToes  1.45487e-011 -6.19069e-011 1.65092e-011
453
root  -37.1911 41.0462 2.16998 158.83 -85.0206 -165.628
RightUpLeg  1.22929 -9.0235 -4.80695
RightLeg  10.3474 -4.85516 1.20522
RightFoot  -4.97919 -0.0428259 0.162814
RightToes  5.82063e-011 0 -3.6325e-017
Spine  2.40906 0.852556 -0.0890743
Spine1  0.623292 0.607901 1.42883
HEad  28.061 1.21497 -1.57004
LeftShoulder1  1.65811 -5.88397 -10.3669
LeftArm  -19.0907 18.2299 -3.77388
LeftForeArm  13.6133 -10.117 -1.16314
LeftHand  -0.244104 0.0205437 5.32207
RightShoulder  0.442021 -0.294298 6.06458
RightArm  -17.2315 -7.60809 3.32564
RightForeArm  0.655074 6.15908 3.9513
RightHand  -1.69609 4.63998 -19.7274
LeftUpLeg  5.66972 5.02082 -0.996276
LeftLeg  6.70917 15.0312 -2.73338
LeftFoot  -7.96048 -0.0974297 4.92706
LeftToes  1.45487e-011 -6.19069e-011 1.65092e-011
454
root  -37.1229 41.0295 2.19293 158.508 -84.629 -165.364
RightUpLeg  1.07314 -9.00866 -4.68681
RightLeg  10.5208 -4.55234 1.20696
RightFoot  -5.30599 -0.0742601 0.726766
RightToes  5.82063e-011 0 -3.6325e-017
Spine  2.65826 0.931035 0.137653
Spine1  0.903551 0.708448 1.33184
HEad  28.2177 1.3729 -1.56216
LeftShoulder1  1.66674 -5.83626 -10.5688
LeftArm  -18.9345 18.3297 -3.87942
LeftForeArm  13.6159 -9.75092 -1.13837
LeftHand  -0.244104 0.0205437 5.32207
RightShoulder  0.476776 -0.0972416 6.31699
RightArm  -17.0488 -7.63912 3.32058
RightForeArm  1.04803 6.02767 3.9504
RightHand  -1.74896 4.90675 -19.8182
LeftUpLeg  5.37288 5.34747 -0.965328
LeftLeg  7.36881 14.9955 -2.32713
LeftFoot  -8.54858 -0.064296 4.74571
LeftToes  1.45487e-011 -6.19069e-011 1.65092e-011
455
root  -37.0846 41.0134 2.21969 158.429 -84.2888 -165.361
RightUpLeg  1.00063 -9.0361 -4.64324
RightLeg  10.7018 -4.27385 1.2132
RightFoot  -5.67411 -0.100598 1.25162
RightToes  5.82063e-011 0 -3.6325e-017
Spine  2.88402 0.974879 0.327817
Spine1  1.20892 0.775241 1.23854
HEad  28.4002 1.53765 -1.49505
LeftShoulder1  1.67356 -5.79446 -10.7386
LeftArm  -18.756 18.5402 -3.95567
LeftForeArm  13.3748 -9.334 -1.10919
LeftHand  -0.244104 0.0205437 5.32207
RightShoulder  0.516006 0.119516 6.59519
RightArm  -16.5616 -7.72056 3.13926
RightForeArm  1.03608 6.09035 4.08144
RightHand  -1.71678 4.75699 -19.739
LeftUpLeg  5.22326 5.74075 -0.902063
LeftLeg  7.90725 14.7862 -2.04065
LeftFoot  -9.22202 -0.0224163 4.19519
LeftToes  1.45487e-011 -6.19069e-011 1.65092e-011
